<svg width="350" height="383" viewBox="0 0 350 383" fill="none" xmlns="http://www.w3.org/2000/svg">
<path d="M243.273 128C241.697 121.576 239.212 115.939 235.818 111.091C232.424 106.121 228.182 101.939 223.091 98.5455C218.121 95.0303 212.303 92.4242 205.636 90.7273C199.091 88.9091 191.879 88 184 88C167.03 88 152.545 92.0606 140.545 100.182C128.667 108.303 119.576 120 113.273 135.273C107.091 150.545 104 168.97 104 190.545C104 212.364 106.97 231.03 112.909 246.545C118.848 262.061 127.697 273.939 139.455 282.182C151.212 290.424 165.818 294.545 183.273 294.545C198.667 294.545 211.455 292.303 221.636 287.818C231.939 283.333 239.636 276.97 244.727 268.727C249.818 260.485 252.364 250.788 252.364 239.636L269.818 241.455H184.727V169.455H349.818V221.091C349.818 255.03 342.606 284.061 328.182 308.182C313.879 332.182 294.121 350.606 268.909 363.455C243.818 376.182 215.03 382.545 182.545 382.545C146.303 382.545 114.485 374.849 87.0909 359.455C59.697 344.061 38.303 322.121 22.9091 293.636C7.63636 265.152 0 231.273 0 192C0 161.212 4.66667 133.939 14 110.182C23.4545 86.4243 36.5455 66.3636 53.2727 50C70 33.5152 89.3333 21.0909 111.273 12.7273C133.212 4.24242 156.727 0 181.818 0C203.879 0 224.364 3.15152 243.273 9.45456C262.303 15.6364 279.091 24.4848 293.636 36C308.303 47.3939 320.121 60.9091 329.091 76.5455C338.061 92.1818 343.515 109.333 345.455 128H243.273Z" fill="url(#paint0_linear_2_18)"/>
<defs>
<linearGradient id="paint0_linear_2_18" x1="-141.045" y1="-80.0454" x2="461.955" y2="475.955" gradientUnits="userSpaceOnUse">
<stop stop-color="#A00D0D"/>
<stop offset="1" stop-color="#590303"/>
</linearGradient>
</defs>
</svg>
