<svg width="140" height="24" viewBox="0 0 140 24" fill="none" xmlns="http://www.w3.org/2000/svg">
<path d="M11.6335 9.15625C11.5956 8.81061 11.5152 8.50521 11.392 8.24006C11.2737 7.97017 11.1103 7.7429 10.902 7.55824C10.6937 7.36884 10.4403 7.22443 10.142 7.125C9.84375 7.02557 9.49811 6.97585 9.10511 6.97585C8.36174 6.97585 7.66572 7.16051 7.01705 7.52983C6.37311 7.89915 5.82386 8.43655 5.36932 9.14205C4.91477 9.8428 4.60464 10.6998 4.43892 11.7131C4.26847 12.7263 4.26847 13.5881 4.43892 14.2983C4.61411 15.0085 4.94318 15.5507 5.42614 15.9247C5.91383 16.294 6.54119 16.4787 7.30824 16.4787C8.00426 16.4787 8.62926 16.3556 9.18324 16.1094C9.73722 15.8584 10.1894 15.5057 10.5398 15.0511C10.8949 14.5966 11.1222 14.0592 11.2216 13.4389L11.8324 13.5312H8.08949L8.47301 11.2159H14.5597L14.2472 13.0483C14.0436 14.3267 13.5961 15.4252 12.9048 16.3438C12.2135 17.2623 11.3518 17.9678 10.3196 18.4602C9.29214 18.9527 8.16525 19.1989 6.93892 19.1989C5.57528 19.1989 4.42708 18.8982 3.49432 18.2969C2.56629 17.6908 1.90578 16.8314 1.51278 15.7188C1.12453 14.6013 1.05587 13.2756 1.30682 11.7415C1.50095 10.5625 1.84659 9.51136 2.34375 8.58807C2.84564 7.66004 3.45881 6.87405 4.18324 6.23011C4.90767 5.58617 5.71023 5.09612 6.59091 4.75994C7.47633 4.42377 8.39725 4.25568 9.35369 4.25568C10.1776 4.25568 10.9233 4.37642 11.5909 4.6179C12.2633 4.85464 12.8385 5.19081 13.3168 5.62642C13.7997 6.06203 14.1643 6.58049 14.4105 7.18182C14.6615 7.77841 14.7775 8.43655 14.7585 9.15625H11.6335ZM26.8484 9.15625C26.8105 8.81061 26.73 8.50521 26.6069 8.24006C26.4885 7.97017 26.3252 7.7429 26.1168 7.55824C25.9085 7.36884 25.6552 7.22443 25.3569 7.125C25.0586 7.02557 24.7129 6.97585 24.32 6.97585C23.5766 6.97585 22.8806 7.16051 22.2319 7.52983C21.5879 7.89915 21.0387 8.43655 20.5842 9.14205C20.1296 9.8428 19.8195 10.6998 19.6538 11.7131C19.4833 12.7263 19.4833 13.5881 19.6538 14.2983C19.829 15.0085 20.158 15.5507 20.641 15.9247C21.1287 16.294 21.756 16.4787 22.5231 16.4787C23.2191 16.4787 23.8441 16.3556 24.3981 16.1094C24.9521 15.8584 25.4042 15.5057 25.7546 15.0511C26.1097 14.5966 26.337 14.0592 26.4364 13.4389L27.0472 13.5312H23.3043L23.6879 11.2159H29.7745L29.462 13.0483C29.2584 14.3267 28.811 15.4252 28.1197 16.3438C27.4284 17.2623 26.5666 17.9678 25.5344 18.4602C24.507 18.9527 23.3801 19.1989 22.1538 19.1989C20.7901 19.1989 19.6419 18.8982 18.7092 18.2969C17.7811 17.6908 17.1206 16.8314 16.7276 15.7188C16.3394 14.6013 16.2707 13.2756 16.5217 11.7415C16.7158 10.5625 17.0614 9.51136 17.5586 8.58807C18.0605 7.66004 18.6737 6.87405 19.3981 6.23011C20.1225 5.58617 20.9251 5.09612 21.8058 4.75994C22.6912 4.42377 23.6121 4.25568 24.5685 4.25568C25.3924 4.25568 26.1381 4.37642 26.8058 4.6179C27.4781 4.85464 28.0534 5.19081 28.5316 5.62642C29.0146 6.06203 29.3791 6.58049 29.6254 7.18182C29.8763 7.77841 29.9923 8.43655 29.9734 9.15625H26.8484Z" fill="url(#paint0_linear_7_7)"/>
<path d="M40.9503 8.6804C40.974 8.08854 40.8011 7.63163 40.4318 7.30966C40.0672 6.98769 39.5156 6.8267 38.777 6.8267C38.2751 6.8267 37.8395 6.89773 37.4702 7.03977C37.1009 7.17708 36.8049 7.36884 36.5824 7.61506C36.3646 7.85653 36.2296 8.13589 36.1776 8.45312C36.1255 8.71354 36.142 8.94081 36.2273 9.13494C36.3172 9.32907 36.4569 9.49716 36.6463 9.6392C36.8404 9.77651 37.0701 9.89725 37.3352 10.0014C37.6004 10.1009 37.8821 10.1861 38.1804 10.2571L39.4304 10.5696C40.0412 10.7116 40.5904 10.901 41.0781 11.1378C41.5705 11.3745 41.9825 11.6657 42.3139 12.0114C42.6501 12.357 42.8868 12.7642 43.0241 13.233C43.1615 13.7017 43.1804 14.2391 43.081 14.8452C42.9295 15.7353 42.5767 16.5071 42.0227 17.1605C41.4688 17.8092 40.742 18.3134 39.8423 18.6733C38.9427 19.0284 37.901 19.206 36.7173 19.206C35.5431 19.206 34.5511 19.026 33.7415 18.6662C32.9318 18.3063 32.3423 17.7737 31.973 17.0682C31.6084 16.358 31.4995 15.4796 31.6463 14.4332H34.6222C34.5701 14.9209 34.6411 15.3281 34.8352 15.6548C35.0341 15.9768 35.33 16.2206 35.723 16.3864C36.116 16.5473 36.5777 16.6278 37.108 16.6278C37.6335 16.6278 38.0999 16.5521 38.5071 16.4006C38.919 16.2491 39.2528 16.0384 39.5085 15.7685C39.7642 15.4986 39.9205 15.1884 39.9773 14.8381C40.0341 14.5114 39.9844 14.2367 39.8281 14.0142C39.6719 13.7917 39.4209 13.6023 39.0753 13.446C38.7344 13.285 38.3106 13.143 37.804 13.0199L36.2841 12.6222C35.1098 12.3239 34.2221 11.8575 33.6207 11.223C33.0194 10.5885 32.804 9.7339 32.9744 8.65909C33.1259 7.77841 33.4929 7.009 34.0753 6.35085C34.6624 5.68797 35.401 5.17424 36.2912 4.80966C37.1861 4.44034 38.1638 4.25568 39.2244 4.25568C40.304 4.25568 41.2154 4.44271 41.9588 4.81676C42.7022 5.18608 43.2443 5.70218 43.5852 6.36506C43.9261 7.02794 44.0303 7.79972 43.8977 8.6804H40.9503ZM45.8952 6.99006L46.3214 4.45455H58.2674L57.8413 6.99006H53.3881L51.3995 19H48.3597L50.3484 6.99006H45.8952ZM58.5497 19H55.2543L62.6903 4.45455H66.6534L69.2528 19H65.9574L64.1889 7.77841H64.0753L58.5497 19ZM59.3026 13.2827H67.0866L66.6747 15.6832H58.8906L59.3026 13.2827ZM85.5845 4.45455L83.1697 19H80.5135L75.7195 9.84517H75.6058L74.0788 19H71.0036L73.4183 4.45455H76.1172L80.8899 13.6023H81.0107L82.5234 4.45455H85.5845ZM90.9379 19H85.7106L88.1254 4.45455H93.2532C94.7163 4.45455 95.9308 4.75284 96.8967 5.34943C97.8673 5.94602 98.5515 6.80066 98.9492 7.91335C99.3469 9.02131 99.418 10.3447 99.1623 11.8835C98.9161 13.3703 98.426 14.6463 97.6921 15.7116C96.9582 16.7723 96.0183 17.5866 94.8725 18.1548C93.7267 18.7183 92.4151 19 90.9379 19ZM89.2262 16.3651H91.1154C92.0292 16.3651 92.8294 16.1946 93.516 15.8537C94.2073 15.5128 94.7731 14.9872 95.2134 14.277C95.6585 13.5668 95.9734 12.6577 96.158 11.5497C96.3332 10.4986 96.3214 9.64631 96.1225 8.9929C95.9284 8.33475 95.552 7.85417 94.9933 7.55114C94.4345 7.24337 93.7006 7.08949 92.7915 7.08949H90.7674L89.2262 16.3651ZM114.807 11.9261C114.542 13.4792 114.028 14.7978 113.266 15.8821C112.508 16.9664 111.582 17.7902 110.489 18.3537C109.4 18.9171 108.225 19.1989 106.966 19.1989C105.645 19.1989 104.506 18.8982 103.55 18.2969C102.598 17.6955 101.909 16.8267 101.483 15.6903C101.057 14.5492 100.976 13.1738 101.241 11.5639C101.497 10.0062 102.006 8.68513 102.768 7.60085C103.531 6.51184 104.461 5.68324 105.56 5.11506C106.658 4.54214 107.839 4.25568 109.104 4.25568C110.415 4.25568 111.547 4.55871 112.499 5.16477C113.455 5.77083 114.144 6.64678 114.565 7.79261C114.991 8.93371 115.072 10.3116 114.807 11.9261ZM111.746 11.5639C111.911 10.5649 111.904 9.7268 111.724 9.04972C111.549 8.3679 111.227 7.8518 110.759 7.50142C110.29 7.15104 109.698 6.97585 108.983 6.97585C108.206 6.97585 107.494 7.16998 106.845 7.55824C106.201 7.9465 105.657 8.50994 105.212 9.24858C104.771 9.98248 104.466 10.875 104.295 11.9261C104.125 12.9299 104.13 13.768 104.31 14.4403C104.494 15.1127 104.823 15.6217 105.297 15.9673C105.775 16.3082 106.369 16.4787 107.08 16.4787C107.851 16.4787 108.557 16.2893 109.196 15.9105C109.84 15.527 110.382 14.9706 110.822 14.2415C111.263 13.5076 111.571 12.6151 111.746 11.5639ZM115.906 19L118.321 4.45455H127.951L127.525 6.99006H120.97L120.402 10.456H126.318L125.892 12.9915H119.975L118.981 19H115.906ZM127.605 19L130.02 4.45455H139.651L139.224 6.99006H132.669L132.101 10.456H138.017L137.591 12.9915H131.675L130.68 19H127.605Z" fill="white"/>
<defs>
<linearGradient id="paint0_linear_7_7" x1="0" y1="0" x2="30.6492" y2="24.4399" gradientUnits="userSpaceOnUse">
<stop stop-color="#A00D0D"/>
<stop offset="1" stop-color="#590303"/>
</linearGradient>
</defs>
</svg>
